<?xml version="1.0" encoding="UTF-8"?>
<svg xmlns="http://www.w3.org/2000/svg" width="281" height="100" fill="none">
  <path fill="#3B3161" d="M66.4219 99.8958 65.2208 95.893 64.02 99.8958H62.6671L60.9938 94.2919H62.1547L63.3596 98.5911 64.6123 94.2919H65.8493L67.1022 98.5911 68.3072 94.2919H69.4477L67.7746 99.8958H66.4219ZM71.6578 99.8958V94.2919H75.8129V95.3167H72.7748V96.5574H75.6727V97.5821H72.7748V98.8712H75.8449V99.8958H71.6578ZM78.4283 99.8958V94.2919H79.5451V98.851H82.5071V99.8958H78.4283ZM89.5621 95.4447 88.6014 96.033C88.2812 95.5489 87.781 95.2607 87.1525 95.2607 86.1397 95.2607 85.3831 96.0051 85.3831 97.0938 85.3831 98.2187 86.1635 98.9271 87.1525 98.9271 87.7769 98.9271 88.277 98.651 88.6134 98.1586L89.5259 98.8152C89.0218 99.5436 88.1892 100 87.1604 100 85.4312 100 84.2183 98.7792 84.2183 97.0938 84.2183 95.4087 85.4312 94.1876 87.1604 94.1876 88.1973 94.1876 89.1017 94.6643 89.5621 95.4447ZM92.7498 97.0938C92.7498 98.1827 93.4982 98.9271 94.5269 98.9271 95.5638 98.9271 96.3043 98.1827 96.3043 97.0938 96.3043 96.0051 95.5638 95.2607 94.5269 95.2607 93.4982 95.2607 92.7498 96.0051 92.7498 97.0938ZM97.4731 97.0938C97.4731 98.7711 96.2522 100 94.5269 100 92.7979 100 91.585 98.7711 91.585 97.0938 91.585 95.4168 92.7979 94.1876 94.5269 94.1876 96.2522 94.1876 97.4731 95.4168 97.4731 97.0938ZM104.984 99.8958V95.6648L103.599 99.3555H102.418L101.033 95.6968V99.8958H99.916V94.2919H101.553L103.01 98.0745 104.463 94.2919H106.101V99.8958H104.984ZM108.811 99.8958V94.2919H112.966V95.3167H109.928V96.5574H112.826V97.5821H109.928V98.8712H112.998V99.8958H108.811ZM116.83 99.2153C116.83 99.6357 116.474 99.996 116.058 99.996 115.642 99.996 115.277 99.6357 115.277 99.2153 115.277 98.799 115.642 98.4428 116.058 98.4428 116.474 98.4428 116.83 98.799 116.83 99.2153ZM124.874 95.2287C124.249 95.2287 123.801 95.4767 123.801 95.9011 123.801 96.3093 124.285 96.4414 124.958 96.5496L125.274 96.6016C126.279 96.7616 127.059 97.1978 127.059 98.1707 127.059 99.4035 125.97 99.996 124.766 99.996 123.913 99.996 123.004 99.7477 122.404 99.2635L122.984 98.3629C123.393 98.6831 124.045 98.9673 124.77 98.9673 125.394 98.9673 125.87 98.723 125.87 98.2907 125.87 97.9023 125.462 97.7623 124.681 97.6342L124.325 97.5784C123.336 97.4182 122.616 96.9898 122.616 95.9731 122.616 94.8043 123.657 94.1958 124.85 94.1958 125.638 94.1958 126.283 94.372 126.991 94.7922L126.463 95.7049C126.019 95.4328 125.486 95.2287 124.874 95.2287ZM129.515 99.8958V94.2919H133.67V95.3167H130.631V96.5574H133.529V97.5821H130.631V98.8712H133.702V99.8958H129.515ZM137.402 96.6936H138.635C139.247 96.6936 139.559 96.4734 139.559 95.9972 139.559 95.5289 139.231 95.3206 138.635 95.3206H137.402V96.6936ZM140.708 95.9972C140.708 96.9178 140.068 97.5421 138.991 97.6501L140.716 99.8958H139.363L137.73 97.6662H137.402V99.8958H136.285V94.2919H138.655C139.992 94.2919 140.708 94.9241 140.708 95.9972ZM144.652 99.8958 142.547 94.2919H143.736L145.341 98.7632 146.954 94.2919H148.115L146.009 99.8958H144.652ZM150.274 99.8958V94.2919H154.429V95.3167H151.391V96.5574H154.289V97.5821H151.391V98.8712H154.461V99.8958H150.274ZM158.293 99.2153C158.293 99.6357 157.937 99.996 157.521 99.996 157.104 99.996 156.74 99.6357 156.74 99.2153 156.74 98.799 157.104 98.4428 157.521 98.4428 157.937 98.4428 158.293 98.799 158.293 99.2153ZM164.123 99.8958V94.2919H168.278V95.3167H165.24V96.5574H168.138V97.5821H165.24V98.8712H168.31V99.8958H164.123ZM175.961 99.8958V95.6648L174.576 99.3555H173.395L172.01 95.6968V99.8958H170.893V94.2919H172.531L173.987 98.0745 175.44 94.2919H177.078V99.8958H175.961ZM180.905 96.8256H182.054C182.666 96.8256 182.979 96.5815 182.979 96.0731 182.979 95.5728 182.666 95.3206 182.054 95.3206H180.905V96.8256ZM180.905 99.8958H179.788V94.2919H182.074C183.411 94.2919 184.123 94.9882 184.123 96.0731 184.123 97.15 183.411 97.8463 182.082 97.8463H180.905V99.8958ZM187.419 97.0938C187.419 98.1827 188.168 98.9271 189.196 98.9271 190.232 98.9271 190.973 98.1827 190.973 97.0938 190.973 96.0051 190.232 95.2607 189.196 95.2607 188.168 95.2607 187.419 96.0051 187.419 97.0938ZM192.143 97.0938C192.143 98.7711 190.922 100 189.196 100 187.467 100 186.255 98.7711 186.255 97.0938 186.255 95.4168 187.467 94.1876 189.196 94.1876 190.922 94.1876 192.143 95.4168 192.143 97.0938ZM199.365 99.8958 198.165 95.893 196.964 99.8958H195.611L193.938 94.2919H195.098L196.303 98.5911 197.556 94.2919H198.792L200.045 98.5911 201.251 94.2919H202.392L200.718 99.8958H199.365ZM204.602 99.8958V94.2919H208.756V95.3167H205.718V96.5574H208.616V97.5821H205.718V98.8712H208.788V99.8958H204.602ZM212.489 96.6936H213.722C214.334 96.6936 214.647 96.4734 214.647 95.9972 214.647 95.5289 214.317 95.3206 213.722 95.3206H212.489V96.6936ZM215.795 95.9972C215.795 96.9178 215.154 97.5421 214.078 97.6501L215.802 99.8958H214.451L212.817 97.6662H212.489V99.8958H211.371V94.2919H213.742C215.078 94.2919 215.795 94.9241 215.795 95.9972ZM219.435 99.2153C219.435 99.6357 219.079 99.996 218.663 99.996 218.246 99.996 217.883 99.6357 217.883 99.2153 217.883 98.799 218.246 98.4428 218.663 98.4428 219.079 98.4428 219.435 98.799 219.435 99.2153ZM168.289 28.0764C168.289 34.1451 166.354 39.7693 163.067 44.3652L158.599 41.2462V8.37098H154.123L146.855 12.2573H133.574L126.327 8.37098H121.851V41.2393L117.362 44.3652C114.074 39.7693 112.14 34.1451 112.14 28.0764 112.14 12.5958 124.735.000549 140.213.000549 155.693.000549 168.289 12.5958 168.289 28.0764Z"></path>
  <path fill="#79C542" d="M157.523 9.25901V50.8466H155.199V9.25901H157.523ZM128.89 34.1628C128.89 34.3708 128.722 34.5397 128.513 34.5397 128.305 34.5397 128.137 34.3708 128.137 34.1628V25.3748C128.137 25.1667 128.305 24.9978 128.513 24.9978 128.722 24.9978 128.89 25.1667 128.89 25.3748V34.1628ZM132.868 12.984C132.78 12.9386 132.672 12.8792 132.542 12.8091 132.444 12.7567 132.336 12.6972 132.217 12.6342 130.905 11.9313 128.355 10.5707 126.327 9.49345V50.633L132.916 45.0227C132.916 45.0054 132.92 44.9914 132.92 44.9845V13.0121C132.902 13.0015 132.885 12.9946 132.868 12.984ZM152.334 34.1628C152.334 34.3708 152.165 34.5397 151.957 34.5397 151.748 34.5397 151.58 34.3708 151.58 34.1628V25.3747C151.58 25.1667 151.748 24.9978 151.957 24.9978 152.165 24.9978 152.334 25.1667 152.334 25.3747V34.1628ZM148.208 12.6342C148.089 12.7007 147.981 12.7567 147.883 12.8091 147.754 12.8792 147.645 12.9386 147.561 12.984 147.544 12.9945 147.526 13.0015 147.509 13.0121V44.9878C147.509 44.9948 147.509 45.0054 147.512 45.0227L154.123 50.6505V9.48288C152.091 10.5635 149.524 11.9313 148.208 12.6342ZM125.25 9.25901V50.8466H122.927V9.25901H125.25Z"></path>
  <path fill="#3B3161" d="M16.4805 79.774H12.3159L8.21473 73.4188 4.10111 79.774H0L6.08776 70.7188.165634 61.9437H4.34316L8.26574 68.0568 12.2139 61.9437H16.315L10.38 70.7188 16.4805 79.774ZM33.8775 72.3489 31.3047 65.4588 28.7194 72.3489H33.8775ZM36.6538 79.774 35.1 75.6222H27.4965L25.9427 79.774H22.2366L29.1778 61.9437H33.5081L40.4493 79.774H36.6538ZM52.7771 79.774 46.0779 61.9437H49.8606L54.9677 76.1698 60.1003 61.9437H63.7938L57.0946 79.774H52.7771ZM71.1799 79.774V61.9437H74.7334V79.774H71.1799ZM83.8773 79.774V61.9437H97.0975V65.204H87.4308V69.1523H96.6516V72.4126H87.4308V76.5136H97.1994V79.774H83.8773ZM109.489 69.585H113.412C115.36 69.585 116.353 68.8847 116.353 67.3692 116.353 65.8789 115.309 65.2168 113.412 65.2168H109.489V69.585ZM120.009 67.3692C120.009 70.2985 117.971 72.2854 114.545 72.6291L120.034 79.774H115.73L110.533 72.68H109.489V79.774H105.935V61.9437H113.475C117.729 61.9437 120.009 63.9559 120.009 67.3692ZM155.873 79.774V66.3119L151.466 78.0548H147.709L143.302 66.4139V79.774H139.749V61.9437H144.958L149.594 73.9792 154.217 61.9437H159.426V79.774H155.873ZM168.57 79.774V61.9437H172.123V79.774H168.57ZM188.31 64.9238C186.324 64.9238 184.897 65.7136 184.897 67.0635 184.897 68.3625 186.438 68.783 188.578 69.1267L189.584 69.2924C192.78 69.8018 195.264 71.1899 195.264 74.2847 195.264 78.2074 191.8 80.0923 187.967 80.0923 185.254 80.0923 182.363 79.3027 180.452 77.7617L182.299 74.8961C183.598 75.9149 185.674 76.8193 187.979 76.8193 189.967 76.8193 191.482 76.0423 191.482 74.6669 191.482 73.4316 190.183 72.9857 187.699 72.5781L186.566 72.3998C183.42 71.8904 181.127 70.5277 181.127 67.2927 181.127 63.5739 184.439 61.6381 188.234 61.6381 190.743 61.6381 192.793 62.1983 195.047 63.5356L193.366 66.4393C191.953 65.5734 190.259 64.9238 188.31 64.9238ZM210.331 64.9238C208.345 64.9238 206.918 65.7136 206.918 67.0635 206.918 68.3625 208.458 68.783 210.599 69.1267L211.605 69.2924C214.801 69.8018 217.285 71.1899 217.285 74.2847 217.285 78.2074 213.819 80.0923 209.986 80.0923 207.274 80.0923 204.383 79.3027 202.473 77.7617L204.319 74.8961C205.618 75.9149 207.695 76.8193 209.999 76.8193 211.986 76.8193 213.503 76.0423 213.503 74.6669 213.503 73.4316 212.202 72.9857 209.719 72.5781L208.586 72.3998C205.441 71.8904 203.147 70.5277 203.147 67.2927 203.147 63.5739 206.458 61.6381 210.254 61.6381 212.764 61.6381 214.814 62.1983 217.068 63.5356L215.387 66.4393C213.974 65.5734 212.28 64.9238 210.331 64.9238ZM225.613 79.774V61.9437H229.167V79.774H225.613ZM241.164 70.8588C241.164 74.323 243.546 76.6919 246.818 76.6919 250.118 76.6919 252.474 74.323 252.474 70.8588 252.474 67.3946 250.118 65.0257 246.818 65.0257 243.546 65.0257 241.164 67.3946 241.164 70.8588ZM256.192 70.8588C256.192 76.1953 252.308 80.1052 246.818 80.1052 241.317 80.1052 237.457 76.1953 237.457 70.8588 237.457 65.5225 241.317 61.6124 246.818 61.6124 252.308 61.6124 256.192 65.5225 256.192 70.8588ZM277.091 79.774 268.049 67.8658 268.036 79.774H264.484V61.9437H267.808L276.863 73.8518V61.9437H280.429V79.774H277.091Z"></path>
</svg>
